<?xml version="1.0" standalone="no"?><!DOCTYPE svg PUBLIC "-//W3C//DTD SVG 1.1//EN" "http://www.w3.org/Graphics/SVG/1.1/DTD/svg11.dtd"><svg t="1587369505224" class="icon" viewBox="0 0 1024 1024" version="1.1" xmlns="http://www.w3.org/2000/svg" p-id="1811" xmlns:xlink="http://www.w3.org/1999/xlink" width="200" height="200"><defs><style type="text/css"></style></defs><path d="M456.996269 538.936489c-3.51915 7.077186-6.438643 13.938454-8.67866 20.398586l-0.830925 2.402723-4.929266 0-1.593288-2.200108c-3.180436-7.987928-6.009877-14.613836-8.442276-19.747763l-44.205804-91.827405-29.67895 0 64.508199 120.437-55.200206 0 0 19.393699 62.674435 0 0 44.13008-62.674435 0 0 19.562545 62.674435 0 0 53.141314 26.050306 0 0-53.141314 60.833507 0 0-19.562545-60.833507 0 0-44.13008 60.833507 0 0-19.393699-54.211692 0 0.206708-0.379647 65.183582-120.05633-27.41642 0L456.996269 538.936489z" p-id="1812"></path><path d="M95.202269 882.248555l698.991812 0c17.217127 0 31.225165-14.001899 31.225165-31.212886L825.419246 636.334773l-12.860912-1.438769c-30.850635-3.455705-54.115502-29.30135-54.115502-60.117193 0-30.806633 23.261797-56.643068 54.108339-60.098773l12.868075-1.432629L825.419246 298.53321c0-17.214057-14.007015-31.219026-31.225165-31.219026L95.202269 267.314185c-17.214057 0-31.219026 14.004969-31.219026 31.219026l0 214.7142 12.861936 1.432629c30.847565 3.455705 54.109362 29.29214 54.109362 60.098773 0 30.803563-23.261797 56.648185-54.109362 60.117193l-12.861936 1.438769L63.983243 851.03567C63.983243 868.246657 77.987189 882.248555 95.202269 882.248555zM92.935646 661.315724l2.570545-0.748037c37.913495-11.106965 64.393589-46.385447 64.393589-85.788875 0-39.402405-26.480094-74.67577-64.394612-85.777619l-2.549056-0.747014-0.001023-0.191358-1.356904-191.788048 0.258896 0 704.608739-1.322112 0 193.302541-2.571568 0.748037c-37.917588 11.100826-64.400752 46.37419-64.400752 85.777619 0 39.404452 26.483164 74.68191 64.401776 85.788875l2.570545 0.748037 0 191.972243-0.25685 0.001023-703.273325 1.329275L92.935646 661.315724z" p-id="1813"></path><path d="M959.354678 725.472929 959.354678 510.772033l-12.861936-1.444908c-30.846542-3.455705-54.108339-29.29828-54.108339-60.111053 0-30.7964 23.261797-56.635905 54.108339-60.104913l0.001023 0 12.860912-1.438769L959.354678 172.97047c0-17.214057-14.004969-31.219026-31.219026-31.219026L229.137701 141.751445c-17.210987 0-31.212886 14.004969-31.212886 31.219026l0 66.921155 28.876678 0-1.308809-69.186755 0.261966 0 704.653765-1.315972 0 193.302541-2.570545 0.748037c-37.921681 11.107989-64.407915 46.382377-64.407915 85.777619 0 39.402405 26.485211 74.680886 64.407915 85.789898l2.550079 0.748037 0.001023 0.191358 1.342578 191.788048-72.351841 0 0 28.947286 68.755943 0C945.349709 756.679675 959.354678 742.680846 959.354678 725.472929z" p-id="1814"></path></svg>