<?xml version="1.0" standalone="no"?><!DOCTYPE svg PUBLIC "-//W3C//DTD SVG 1.1//EN" "http://www.w3.org/Graphics/SVG/1.1/DTD/svg11.dtd"><svg t="1586311137233" class="icon" viewBox="0 0 1024 1024" version="1.1" xmlns="http://www.w3.org/2000/svg" p-id="2380" xmlns:xlink="http://www.w3.org/1999/xlink" width="200" height="200"><defs><style type="text/css"></style></defs><path d="M981.333333 938.666667c0.047276-130.151062-73.467036-249.192244-189.908033-307.389105 5.294922 12.291782 8.226039 25.860018 8.226039 40.09012v11.913574c55.5494 12.291782 95.119483 61.553463 95.024931 118.473869v65.146445a39.026408 39.026408 0 0 1 13.379132 29.594829c0.141828 21.416066-17.113943 38.908218-38.53001 39.097322a38.700203 38.700203 0 0 1-27.372853-11.535365 38.955494 38.955494 0 0 1-11.204432-27.514681c0-13.000923 6.287719-24.536288 15.932041-31.674977v-66.564728c0-39.428255-31.864081-71.717821-70.819576-71.71782-39.00277 0-70.819575 32.289566-70.819575 71.765097v67.841181a39.300609 39.300609 0 0 1 14.230102 30.303971 38.823121 38.823121 0 0 1-38.530009 39.144598 38.700203 38.700203 0 0 1-27.372854-11.535364 38.955494 38.955494 0 0 1-11.204432-27.514682c0-11.866297 5.200369-22.45614 13.379132-29.594829V801.802401c-0.047276-58.244137 41.366574-108.309511 98.617913-119.135734a132.160295 132.160295 0 0 0-31.864081-76.587258c-18.390397-4.491228-37.159003-7.375069-56.069437-8.651523-9.266113 215.484395-74.648938 382.416251-153.978208 382.416251s-144.712096-167.026408-153.978209-382.510804l-1.276454 0.094553A131.829363 131.829363 0 0 0 326.323176 682.430286v98.759742c27.372853 10.25891 46.945152 36.875346 46.945153 68.172114 0 40.09012-32.100462 72.663343-71.670545 72.663343-39.570083 0-71.670545-32.525946-71.670545-72.663343-0.094552-32.053186 20.801477-60.37156 51.436381-69.684949v-118.473869c0-19.80868 5.720406-38.293629 15.506555-53.942013C151.165282 645.129455 42.666667 779.629917 42.666667 938.619391v10.589843h0.709141c-0.189104 0.85097-0.330933 1.701939-0.330933 2.552908 0.047276 39.85374 210.047645 72.237858 469.167867 72.237858 259.072946 0 469.120591-32.336842 469.120591-72.285134 0-0.85097-0.094552-1.701939-0.283656-2.505632h0.283656v-10.542567z m0 0" p-id="2381"></path><path d="M533.345152 256c-106.040259 0-191.988181 31.769529-191.988181 71.055956 0 1.32373 0.141828 2.647461 0.283657 3.971191h-0.283657l40.515605 185.369529c0.661865 3.309326 1.32373 6.5241 2.127424 9.738873l0.141828 0.520037c16.830286 64.957341 77.532779 113.415328 149.392429 113.415328 76.823638 0 140.930009-55.360295 152.228993-127.078116l39.617359-181.918375h-0.283656c0.189104-1.32373 0.283657-2.647461 0.283656-3.971191-0.047276-39.333703-85.995199-71.103232-192.035457-71.103232z m0 0" p-id="2382"></path><path d="M532.210526 211.891413c105.66205 0 195.344783 36.355309 227.303417 86.798892h8.509695V86.798892h-0.047276l0.047276-1.181902c0-47.276085-105.047461-85.569714-234.678486-85.569714C403.714127 0 298.666667 38.293629 298.666667 85.569714l0.047276 1.181902h-0.047276v211.891413h6.287719c32.00591-50.396307 121.641367-86.751616 227.25614-86.751616zM467.20591 100.698061c0-9.124284 7.233241-16.593906 16.026592-16.593906h34.275162V48.694367c0-9.124284 7.233241-16.593906 16.026593-16.593905 8.840628 0 16.073869 7.469621 16.073869 16.641182v35.409787h34.227885c8.840628 0 16.073869 7.422345 16.073869 16.54663s-7.233241 16.641182-16.073869 16.641182h-34.227885v35.409787c0 9.124284-7.233241 16.593906-16.073869 16.593906a16.357525 16.357525 0 0 1-16.026593-16.641182v-35.409787h-34.275162a16.376436 16.376436 0 0 1-16.026592-16.593906z m0 0" p-id="2383"></path></svg>