<?xml version="1.0" standalone="no"?><!DOCTYPE svg PUBLIC "-//W3C//DTD SVG 1.1//EN" "http://www.w3.org/Graphics/SVG/1.1/DTD/svg11.dtd"><svg t="1587026946124" class="icon" viewBox="0 0 1024 1024" version="1.1" xmlns="http://www.w3.org/2000/svg" p-id="2176" xmlns:xlink="http://www.w3.org/1999/xlink" width="200" height="200"><defs><style type="text/css"></style></defs><path d="M986.074074 936.732444c0-137.576296-78.506667-257.21363-191.848296-314.17837 5.499259 12.932741 8.343704 26.908444 8.343703 41.016889v12.136296c54.613333 11.794963 95.971556 61.76237 95.971556 121.154371v66.56c8.286815 7.338667 13.558519 18.185481 13.558519 30.283851 0 22.072889-17.445926 39.954963-38.968889 39.954963-21.504 0-38.949926-17.882074-38.949926-39.954963 0-13.293037 6.352593-25.069037 16.099555-32.331851v-68.020149c0-40.353185-32.199111-73.367704-71.528296-73.367703h-0.056889c-39.348148 0-71.528296 33.014519-71.528296 73.386666v69.328593c8.779852 7.319704 14.411852 18.488889 14.411852 31.004444 0 22.072889-17.445926 39.954963-38.968889 39.954963-21.522963 0-38.949926-17.882074-38.949926-39.954963 0-12.09837 5.252741-22.945185 13.539555-30.264888v-66.578963c0-60.681481 43.159704-111.502222 99.555556-121.818074a135.774815 135.774815 0 0 0-32.218074-78.279112c-18.583704-4.608-37.546667-7.566222-56.623408-8.855703-9.348741 220.235852-75.415704 390.921481-155.515259 390.921481-80.118519 0-146.166519-170.704593-155.515259-390.97837l-1.251556 0.094815a135.888593 135.888593 0 0 0-31.232 86.869333v100.958815c27.685926 10.42963 47.42637 37.717333 47.426371 69.726815 0 41.016889-32.426667 74.258963-72.400593 74.258963-39.992889 0-72.400593-33.242074-72.400592-74.258963 0-33.716148 21.921185-62.179556 51.939555-71.243852v-121.097482a104.485926 104.485926 0 0 1 15.663408-55.163259C147.531852 636.681481 37.925926 774.200889 37.925926 936.732444v10.827852h0.720593a12.022519 12.022519 0 0 0-0.303408 2.56C38.343111 990.928593 250.500741 1024 512.18963 1024S986.074074 990.928593 986.074074 950.120296a11.946667 11.946667 0 0 0-0.32237-2.56H986.074074v-10.827852z" fill="#ffffff" p-id="2177"></path><path d="M512 227.555556c-115.2 0-208.592593 36.124444-208.592593 80.668444 0 1.517037 0.113778 3.034074 0.341334 4.551111H303.407407l44.069926 210.488889c0.644741 3.716741 1.422222 7.395556 2.294519 11.036444l0.132741 0.568889C368.165926 608.635259 434.176 663.703704 512.18963 663.703704h0.037926c83.418074 0 153.069037-62.881185 165.357037-144.308148L720.592593 312.756148h-0.341334c0.227556-1.498074 0.341333-3.015111 0.341334-4.532148C720.592593 263.661037 627.2 227.555556 512 227.555556z" fill="#ffffff" p-id="2178"></path><path d="M510.919111 201.803852c102.437926 0 189.402074 34.607407 220.387556 82.640592H739.555556V82.640593h-0.037926l0.037926-1.137778C739.555556 36.484741 637.667556 0 512 0S284.444444 36.484741 284.444444 81.502815l0.037926 1.137778H284.444444V284.444444h6.106075c30.985481-48.033185 117.94963-82.640593 220.368592-82.640592z m-63.108741-105.889185a15.739259 15.739259 0 0 1 15.587556-15.815111h33.204148V46.383407a15.739259 15.739259 0 0 1 15.568593-15.815111 15.739259 15.739259 0 0 1 15.568592 15.815111v33.716149h33.223111a15.739259 15.739259 0 0 1 15.54963 15.815111 15.739259 15.739259 0 0 1-15.54963 15.815111H527.739259v33.735111a15.739259 15.739259 0 0 1-15.549629 15.796148 15.739259 15.739259 0 0 1-15.587556-15.796148V111.691852h-33.204148a15.739259 15.739259 0 0 1-15.587556-15.796148z" fill="#ffffff" p-id="2179"></path></svg>