<?xml version="1.0" standalone="no"?><!DOCTYPE svg PUBLIC "-//W3C//DTD SVG 1.1//EN" "http://www.w3.org/Graphics/SVG/1.1/DTD/svg11.dtd"><svg t="1590629641936" class="icon" viewBox="0 0 1024 1024" version="1.1" xmlns="http://www.w3.org/2000/svg" p-id="2763" xmlns:xlink="http://www.w3.org/1999/xlink" width="200" height="200"><defs><style type="text/css"></style></defs><path d="M160 320c0-94.624 153.312-157.664 341.504-159.936L512 160c189.44 0 346.208 61.344 351.84 154.784L864 320v384c0 96.384-159.04 160-352 160S160 800.384 160 704V320z m352 286.624c-118.4 0-224.064-24-288-64.768V576c0 44.992 127.488 96 288 96s288-51.008 288-96l0.032-34.176c-63.936 40.8-169.6 64.8-288.032 64.8zM512 480c-118.4 0-224.064-23.968-288-64.768v31.36c0 45.024 127.488 96 288 96s288-50.976 288-96l0.032-31.36C736.096 456 630.432 480 512 480z m0-256c-160.512 0-288 51.008-288 96s127.488 96 288 96 288-51.008 288-96-127.488-96-288-96z m0 576c160.512 0 288-51.008 288-96l0.032-32.768C736.096 712 630.432 736 512 736c-118.4 0-224.064-23.968-288-64.768V704c0 44.992 127.488 96 288 96z" p-id="2764"></path></svg>